<?xml version="1.0" encoding="UTF-8"?>
<svg xmlns="http://www.w3.org/2000/svg" xmlns:xlink="http://www.w3.org/1999/xlink" width="600px" height="519px" viewBox="0 0 599 519" version="1.1">
<defs>
<linearGradient id="linear0" gradientUnits="userSpaceOnUse" x1="673" y1="763.27" x2="673" y2="341" gradientTransform="matrix(0.679138,0,0,0.68021,0,0)">
<stop offset="0" style="stop-color:rgb(50.196078%,50.196078%,50.196078%);stop-opacity:0.25098;"/>
<stop offset="0.54" style="stop-color:rgb(50.196078%,50.196078%,50.196078%);stop-opacity:0.121569;"/>
<stop offset="1" style="stop-color:rgb(50.196078%,50.196078%,50.196078%);stop-opacity:0.101961;"/>
</linearGradient>
<linearGradient id="linear1" gradientUnits="userSpaceOnUse" x1="640" y1="537.58" x2="640" y2="459.58" gradientTransform="matrix(0.679138,0,0,0.68021,0,0)">
<stop offset="0" style="stop-color:rgb(50.196078%,50.196078%,50.196078%);stop-opacity:0.25098;"/>
<stop offset="0.54" style="stop-color:rgb(50.196078%,50.196078%,50.196078%);stop-opacity:0.121569;"/>
<stop offset="1" style="stop-color:rgb(50.196078%,50.196078%,50.196078%);stop-opacity:0.101961;"/>
</linearGradient>
<linearGradient id="linear2" gradientUnits="userSpaceOnUse" x1="736" y1="591.58" x2="736" y2="513.58" gradientTransform="matrix(0.679138,0,0,0.68021,0,0)">
<stop offset="0" style="stop-color:rgb(50.196078%,50.196078%,50.196078%);stop-opacity:0.25098;"/>
<stop offset="0.54" style="stop-color:rgb(50.196078%,50.196078%,50.196078%);stop-opacity:0.121569;"/>
<stop offset="1" style="stop-color:rgb(50.196078%,50.196078%,50.196078%);stop-opacity:0.101961;"/>
</linearGradient>
<linearGradient id="linear3" gradientUnits="userSpaceOnUse" x1="688" y1="645.58" x2="688" y2="567.58" gradientTransform="matrix(0.679138,0,0,0.68021,0,0)">
<stop offset="0" style="stop-color:rgb(50.196078%,50.196078%,50.196078%);stop-opacity:0.25098;"/>
<stop offset="0.54" style="stop-color:rgb(50.196078%,50.196078%,50.196078%);stop-opacity:0.121569;"/>
<stop offset="1" style="stop-color:rgb(50.196078%,50.196078%,50.196078%);stop-opacity:0.101961;"/>
</linearGradient>
<linearGradient id="linear4" gradientUnits="userSpaceOnUse" x1="822" y1="699.58" x2="822" y2="621.58" gradientTransform="matrix(0.679138,0,0,0.68021,0,0)">
<stop offset="0" style="stop-color:rgb(50.196078%,50.196078%,50.196078%);stop-opacity:0.25098;"/>
<stop offset="0.54" style="stop-color:rgb(50.196078%,50.196078%,50.196078%);stop-opacity:0.121569;"/>
<stop offset="1" style="stop-color:rgb(50.196078%,50.196078%,50.196078%);stop-opacity:0.101961;"/>
</linearGradient>
<linearGradient id="linear5" gradientUnits="userSpaceOnUse" x1="209" y1="422.27" x2="209" y2="0" gradientTransform="matrix(0.679138,0,0,0.68021,0,0)">
<stop offset="0" style="stop-color:rgb(50.196078%,50.196078%,50.196078%);stop-opacity:0.25098;"/>
<stop offset="0.54" style="stop-color:rgb(50.196078%,50.196078%,50.196078%);stop-opacity:0.121569;"/>
<stop offset="1" style="stop-color:rgb(50.196078%,50.196078%,50.196078%);stop-opacity:0.101961;"/>
</linearGradient>
<filter id="alpha" filterUnits="objectBoundingBox" x="0%" y="0%" width="100%" height="100%">
  <feColorMatrix type="matrix" in="SourceGraphic" values="0 0 0 0 1 0 0 0 0 1 0 0 0 0 1 0 0 0 1 0"/>
</filter>
<mask id="mask0">
  <g filter="url(#alpha)">
<rect x="0" y="0" width="599" height="519" style="fill:rgb(0%,0%,0%);fill-opacity:0.4;stroke:none;"/>
  </g>
</mask>
<clipPath id="clip1">
  <rect x="0" y="0" width="599" height="519"/>
</clipPath>
<g id="surface5" clip-path="url(#clip1)">
<path style=" stroke:none;fill-rule:nonzero;fill:rgb(12.941176%,58.823529%,95.294118%);fill-opacity:1;" d="M 64.265625 137.035156 L 90.25 137.035156 L 90.25 163.652344 L 64.265625 163.652344 Z M 64.265625 137.035156 "/>
</g>
<mask id="mask1">
  <g filter="url(#alpha)">
<rect x="0" y="0" width="599" height="519" style="fill:rgb(0%,0%,0%);fill-opacity:0.4;stroke:none;"/>
  </g>
</mask>
<clipPath id="clip2">
  <rect x="0" y="0" width="599" height="519"/>
</clipPath>
<g id="surface8" clip-path="url(#clip2)">
<path style=" stroke:none;fill-rule:nonzero;fill:rgb(41.176471%,94.117647%,68.235294%);fill-opacity:1;" d="M 107.625 149.644531 L 133.605469 149.644531 L 133.605469 176.261719 L 107.625 176.261719 Z M 107.625 149.644531 "/>
</g>
<mask id="mask2">
  <g filter="url(#alpha)">
<rect x="0" y="0" width="599" height="519" style="fill:rgb(0%,0%,0%);fill-opacity:0.4;stroke:none;"/>
  </g>
</mask>
<clipPath id="clip3">
  <rect x="0" y="0" width="599" height="519"/>
</clipPath>
<g id="surface11" clip-path="url(#clip3)">
<path style=" stroke:none;fill-rule:nonzero;fill:rgb(100%,100%,0%);fill-opacity:1;" d="M 193.621094 151.039062 L 219.605469 151.039062 L 219.605469 177.65625 L 193.621094 177.65625 Z M 193.621094 151.039062 "/>
</g>
<mask id="mask3">
  <g filter="url(#alpha)">
<rect x="0" y="0" width="599" height="519" style="fill:rgb(0%,0%,0%);fill-opacity:0.4;stroke:none;"/>
  </g>
</mask>
<clipPath id="clip4">
  <rect x="0" y="0" width="599" height="519"/>
</clipPath>
<g id="surface14" clip-path="url(#clip4)">
<path style=" stroke:none;fill-rule:nonzero;fill:rgb(19.607843%,45.098039%,85.882353%);fill-opacity:1;" d="M 150.496094 129.347656 L 176.480469 129.347656 L 176.480469 153.597656 L 150.496094 153.597656 Z M 150.496094 129.347656 "/>
</g>
<linearGradient id="linear6" gradientUnits="userSpaceOnUse" x1="405" y1="582.71" x2="405" y2="160.45" gradientTransform="matrix(0.679138,0,0,0.68021,0,0)">
<stop offset="0" style="stop-color:rgb(50.196078%,50.196078%,50.196078%);stop-opacity:0.25098;"/>
<stop offset="0.54" style="stop-color:rgb(50.196078%,50.196078%,50.196078%);stop-opacity:0.121569;"/>
<stop offset="1" style="stop-color:rgb(50.196078%,50.196078%,50.196078%);stop-opacity:0.101961;"/>
</linearGradient>
<linearGradient id="linear7" gradientUnits="userSpaceOnUse" x1="500.8" y1="592.09" x2="500.8" y2="468.22" gradientTransform="matrix(0.679138,0,0,0.68021,-107.982993,-46.505937)">
<stop offset="0" style="stop-color:rgb(50.196078%,50.196078%,50.196078%);stop-opacity:0.25098;"/>
<stop offset="0.54" style="stop-color:rgb(50.196078%,50.196078%,50.196078%);stop-opacity:0.121569;"/>
<stop offset="1" style="stop-color:rgb(50.196078%,50.196078%,50.196078%);stop-opacity:0.101961;"/>
</linearGradient>
</defs>
<g id="surface1">
<path style=" stroke:none;fill-rule:nonzero;fill:url(#linear0);" d="M 315.121094 231.953125 L 599 231.953125 L 599 519.183594 L 315.121094 519.183594 Z M 315.121094 231.953125 "/>
<path style=" stroke:none;fill-rule:nonzero;fill:rgb(100%,100%,100%);fill-opacity:1;" d="M 318.984375 277.402344 L 595.140625 277.402344 L 595.140625 511.441406 L 318.984375 511.441406 Z M 318.984375 277.402344 "/>
<path style=" stroke:none;fill-rule:nonzero;fill:rgb(74.117647%,74.117647%,74.117647%);fill-opacity:1;" d="M 318.984375 234.855469 L 595.140625 234.855469 L 595.140625 277.410156 L 318.984375 277.410156 Z M 318.984375 234.855469 "/>
<path style=" stroke:none;fill-rule:nonzero;fill:rgb(100%,32.156863%,32.156863%);fill-opacity:1;" d="M 350.851562 256.125 C 350.851562 262 346.09375 266.765625 340.226562 266.765625 C 334.363281 266.765625 329.605469 262 329.605469 256.125 C 329.605469 250.25 334.363281 245.488281 340.226562 245.488281 C 346.09375 245.488281 350.851562 250.25 350.851562 256.125 Z M 350.851562 256.125 "/>
<path style=" stroke:none;fill-rule:nonzero;fill:rgb(100%,100%,0%);fill-opacity:1;" d="M 377.886719 256.125 C 377.886719 262 373.128906 266.765625 367.265625 266.765625 C 361.398438 266.765625 356.644531 262 356.644531 256.125 C 356.644531 250.25 361.398438 245.488281 367.265625 245.488281 C 373.128906 245.488281 377.886719 250.25 377.886719 256.125 Z M 377.886719 256.125 "/>
<path style=" stroke:none;fill-rule:nonzero;fill:rgb(41.176471%,94.117647%,68.235294%);fill-opacity:1;" d="M 404.921875 256.125 C 404.921875 262 400.167969 266.765625 394.300781 266.765625 C 388.433594 266.765625 383.679688 262 383.679688 256.125 C 383.679688 250.25 388.433594 245.488281 394.300781 245.488281 C 400.167969 245.488281 404.921875 250.25 404.921875 256.125 Z M 404.921875 256.125 "/>
<path style=" stroke:none;fill-rule:nonzero;fill:rgb(87.843137%,87.843137%,87.843137%);fill-opacity:1;" d="M 343.304688 332.1875 L 570.816406 332.1875 L 570.816406 346.472656 L 343.304688 346.472656 Z M 343.304688 332.1875 "/>
<path style=" stroke:none;fill-rule:nonzero;fill:rgb(87.843137%,87.843137%,87.843137%);fill-opacity:1;" d="M 343.304688 368.917969 L 570.816406 368.917969 L 570.816406 383.203125 L 343.304688 383.203125 Z M 343.304688 368.917969 "/>
<path style=" stroke:none;fill-rule:nonzero;fill:rgb(87.843137%,87.843137%,87.843137%);fill-opacity:1;" d="M 343.304688 405.648438 L 570.816406 405.648438 L 570.816406 419.933594 L 343.304688 419.933594 Z M 343.304688 405.648438 "/>
<path style=" stroke:none;fill-rule:nonzero;fill:rgb(87.843137%,87.843137%,87.843137%);fill-opacity:1;" d="M 343.304688 442.382812 L 570.816406 442.382812 L 570.816406 456.664062 L 343.304688 456.664062 Z M 343.304688 442.382812 "/>
<path style=" stroke:none;fill-rule:nonzero;fill:url(#linear1);" d="M 461.136719 339.140625 C 461.136719 353.789062 449.277344 365.667969 434.648438 365.667969 C 420.019531 365.667969 408.164062 353.789062 408.164062 339.140625 C 408.164062 324.488281 420.019531 312.609375 434.648438 312.609375 C 449.277344 312.609375 461.136719 324.488281 461.136719 339.140625 Z M 461.136719 339.140625 "/>
<path style=" stroke:none;fill-rule:nonzero;fill:url(#linear2);" d="M 526.332031 375.871094 C 526.332031 390.519531 514.472656 402.398438 499.847656 402.398438 C 485.21875 402.398438 473.359375 390.519531 473.359375 375.871094 C 473.359375 361.21875 485.21875 349.34375 499.847656 349.34375 C 514.472656 349.34375 526.332031 361.21875 526.332031 375.871094 Z M 526.332031 375.871094 "/>
<path style=" stroke:none;fill-rule:nonzero;fill:url(#linear3);" d="M 493.734375 412.601562 C 493.734375 427.253906 481.875 439.128906 467.246094 439.128906 C 452.617188 439.128906 440.761719 427.253906 440.761719 412.601562 C 440.761719 397.949219 452.617188 386.074219 467.246094 386.074219 C 481.875 386.074219 493.734375 397.949219 493.734375 412.601562 Z M 493.734375 412.601562 "/>
<path style=" stroke:none;fill-rule:nonzero;fill:url(#linear4);" d="M 584.738281 449.332031 C 584.738281 463.984375 572.878906 475.859375 558.25 475.859375 C 543.625 475.859375 531.765625 463.984375 531.765625 449.332031 C 531.765625 434.683594 543.625 422.804688 558.25 422.804688 C 572.878906 422.804688 584.738281 434.683594 584.738281 449.332031 Z M 584.738281 449.332031 "/>
<path style=" stroke:none;fill-rule:nonzero;fill:rgb(19.607843%,45.098039%,85.882353%);fill-opacity:1;" d="M 457.058594 339.140625 C 457.058594 351.535156 447.027344 361.585938 434.648438 361.585938 C 422.269531 361.585938 412.238281 351.535156 412.238281 339.140625 C 412.238281 326.742188 422.269531 316.691406 434.648438 316.691406 C 447.027344 316.691406 457.058594 326.742188 457.058594 339.140625 Z M 457.058594 339.140625 "/>
<path style=" stroke:none;fill-rule:nonzero;fill:rgb(19.607843%,45.098039%,85.882353%);fill-opacity:1;" d="M 522.257812 375.871094 C 522.257812 388.265625 512.222656 398.316406 499.847656 398.316406 C 487.46875 398.316406 477.433594 388.265625 477.433594 375.871094 C 477.433594 363.472656 487.46875 353.421875 499.847656 353.421875 C 512.222656 353.421875 522.257812 363.472656 522.257812 375.871094 Z M 522.257812 375.871094 "/>
<path style=" stroke:none;fill-rule:nonzero;fill:rgb(19.607843%,45.098039%,85.882353%);fill-opacity:1;" d="M 489.660156 412.601562 C 489.660156 425 479.625 435.046875 467.246094 435.046875 C 454.871094 435.046875 444.835938 425 444.835938 412.601562 C 444.835938 400.203125 454.871094 390.15625 467.246094 390.15625 C 479.625 390.15625 489.660156 400.203125 489.660156 412.601562 Z M 489.660156 412.601562 "/>
<path style=" stroke:none;fill-rule:nonzero;fill:rgb(41.176471%,94.117647%,68.235294%);fill-opacity:1;" d="M 580.664062 449.332031 C 580.664062 461.730469 570.628906 471.78125 558.25 471.78125 C 545.875 471.78125 535.839844 461.730469 535.839844 449.332031 C 535.839844 436.9375 545.875 426.886719 558.25 426.886719 C 570.628906 426.886719 580.664062 436.9375 580.664062 449.332031 Z M 580.664062 449.332031 "/>
<path style=" stroke:none;fill-rule:nonzero;fill:url(#linear5);" d="M 0 0 L 283.878906 0 L 283.878906 287.230469 L 0 287.230469 Z M 0 0 "/>
<path style=" stroke:none;fill-rule:nonzero;fill:rgb(100%,100%,100%);fill-opacity:1;" d="M 3.863281 45.453125 L 280.023438 45.453125 L 280.023438 279.492188 L 3.863281 279.492188 Z M 3.863281 45.453125 "/>
<path style=" stroke:none;fill-rule:nonzero;fill:rgb(74.117647%,74.117647%,74.117647%);fill-opacity:1;" d="M 3.863281 2.90625 L 280.023438 2.90625 L 280.023438 45.457031 L 3.863281 45.457031 Z M 3.863281 2.90625 "/>
<path style=" stroke:none;fill-rule:nonzero;fill:rgb(100%,32.156863%,32.156863%);fill-opacity:1;" d="M 35.730469 24.175781 C 35.730469 30.050781 30.972656 34.8125 25.109375 34.8125 C 19.242188 34.8125 14.484375 30.050781 14.484375 24.175781 C 14.484375 18.300781 19.242188 13.535156 25.109375 13.535156 C 30.972656 13.535156 35.730469 18.300781 35.730469 24.175781 Z M 35.730469 24.175781 "/>
<path style=" stroke:none;fill-rule:nonzero;fill:rgb(100%,100%,0%);fill-opacity:1;" d="M 62.765625 24.175781 C 62.765625 30.050781 58.011719 34.8125 52.144531 34.8125 C 46.277344 34.8125 41.523438 30.050781 41.523438 24.175781 C 41.523438 18.300781 46.277344 13.535156 52.144531 13.535156 C 58.011719 13.535156 62.765625 18.300781 62.765625 24.175781 Z M 62.765625 24.175781 "/>
<path style=" stroke:none;fill-rule:nonzero;fill:rgb(41.176471%,94.117647%,68.235294%);fill-opacity:1;" d="M 89.800781 24.175781 C 89.800781 30.050781 85.046875 34.8125 79.179688 34.8125 C 73.316406 34.8125 68.558594 30.050781 68.558594 24.175781 C 68.558594 18.300781 73.316406 13.535156 79.179688 13.535156 C 85.046875 13.535156 89.800781 18.300781 89.800781 24.175781 Z M 89.800781 24.175781 "/>
<path style=" stroke:none;fill-rule:nonzero;fill:rgb(87.843137%,87.843137%,87.843137%);fill-opacity:1;" d="M 64.265625 101.546875 L 90.25 101.546875 L 90.25 223.402344 L 64.265625 223.402344 Z M 64.265625 101.546875 "/>
<path style=" stroke:none;fill-rule:nonzero;fill:rgb(87.843137%,87.843137%,87.843137%);fill-opacity:1;" d="M 107.386719 101.546875 L 133.371094 101.546875 L 133.371094 223.402344 L 107.386719 223.402344 Z M 107.386719 101.546875 "/>
<path style=" stroke:none;fill-rule:nonzero;fill:rgb(87.843137%,87.843137%,87.843137%);fill-opacity:1;" d="M 150.496094 101.546875 L 176.480469 101.546875 L 176.480469 223.402344 L 150.496094 223.402344 Z M 150.496094 101.546875 "/>
<path style=" stroke:none;fill-rule:nonzero;fill:rgb(87.843137%,87.843137%,87.843137%);fill-opacity:1;" d="M 193.609375 101.546875 L 219.59375 101.546875 L 219.59375 223.402344 L 193.609375 223.402344 Z M 193.609375 101.546875 "/>
<path style=" stroke:none;fill-rule:nonzero;fill:rgb(12.941176%,58.823529%,95.294118%);fill-opacity:1;" d="M 64.265625 162.476562 L 90.25 162.476562 L 90.25 223.402344 L 64.265625 223.402344 Z M 64.265625 162.476562 "/>
<use xlink:href="#surface5" mask="url(#mask0)"/>
<use xlink:href="#surface8" mask="url(#mask1)"/>
<use xlink:href="#surface11" mask="url(#mask2)"/>
<path style=" stroke:none;fill-rule:nonzero;fill:rgb(41.176471%,94.117647%,68.235294%);fill-opacity:1;" d="M 107.386719 175.699219 L 133.371094 175.699219 L 133.371094 223.394531 L 107.386719 223.394531 Z M 107.386719 175.699219 "/>
<path style=" stroke:none;fill-rule:nonzero;fill:rgb(19.607843%,45.098039%,85.882353%);fill-opacity:1;" d="M 150.496094 153.597656 L 176.480469 153.597656 L 176.480469 223.402344 L 150.496094 223.402344 Z M 150.496094 153.597656 "/>
<use xlink:href="#surface14" mask="url(#mask3)"/>
<path style=" stroke:none;fill-rule:nonzero;fill:rgb(100%,100%,0%);fill-opacity:1;" d="M 193.609375 177.855469 L 219.59375 177.855469 L 219.59375 223.402344 L 193.609375 223.402344 Z M 193.609375 177.855469 "/>
<path style=" stroke:none;fill-rule:nonzero;fill:url(#linear6);" d="M 133.109375 109.140625 L 416.992188 109.140625 L 416.992188 396.371094 L 133.109375 396.371094 Z M 133.109375 109.140625 "/>
<path style=" stroke:none;fill-rule:nonzero;fill:rgb(100%,100%,100%);fill-opacity:1;" d="M 136.976562 154.589844 L 413.132812 154.589844 L 413.132812 388.632812 L 136.976562 388.632812 Z M 136.976562 154.589844 "/>
<path style=" stroke:none;fill-rule:nonzero;fill:rgb(74.117647%,74.117647%,74.117647%);fill-opacity:1;" d="M 136.976562 112.039062 L 413.132812 112.039062 L 413.132812 154.589844 L 136.976562 154.589844 Z M 136.976562 112.039062 "/>
<path style=" stroke:none;fill-rule:nonzero;fill:rgb(100%,32.156863%,32.156863%);fill-opacity:1;" d="M 168.839844 133.3125 C 168.839844 139.191406 164.085938 143.953125 158.21875 143.953125 C 152.351562 143.953125 147.597656 139.191406 147.597656 133.3125 C 147.597656 127.4375 152.351562 122.675781 158.21875 122.675781 C 164.085938 122.675781 168.839844 127.4375 168.839844 133.3125 Z M 168.839844 133.3125 "/>
<path style=" stroke:none;fill-rule:nonzero;fill:rgb(100%,100%,0%);fill-opacity:1;" d="M 195.878906 133.3125 C 195.878906 139.191406 191.121094 143.953125 185.253906 143.953125 C 179.390625 143.953125 174.632812 139.191406 174.632812 133.3125 C 174.632812 127.4375 179.390625 122.675781 185.253906 122.675781 C 191.121094 122.675781 195.878906 127.4375 195.878906 133.3125 Z M 195.878906 133.3125 "/>
<path style=" stroke:none;fill-rule:nonzero;fill:rgb(41.176471%,94.117647%,68.235294%);fill-opacity:1;" d="M 222.914062 133.3125 C 222.914062 139.191406 218.15625 143.953125 212.292969 143.953125 C 206.425781 143.953125 201.671875 139.191406 201.671875 133.3125 C 201.671875 127.4375 206.425781 122.675781 212.292969 122.675781 C 218.15625 122.675781 222.914062 127.4375 222.914062 133.3125 Z M 222.914062 133.3125 "/>
<path style=" stroke:none;fill-rule:nonzero;fill:rgb(12.941176%,58.823529%,95.294118%);fill-opacity:1;" d="M 275.050781 191.335938 L 274.570312 191.335938 L 274.570312 351.867188 L 275.050781 351.867188 C 319.308594 351.867188 355.1875 315.929688 355.1875 271.601562 C 355.1875 227.273438 319.308594 191.335938 275.050781 191.335938 Z M 275.050781 191.335938 "/>
<path style=" stroke:none;fill-rule:nonzero;fill:rgb(41.176471%,94.117647%,68.235294%);fill-opacity:1;" d="M 274.570312 191.351562 C 230.675781 191.613281 195.164062 227.191406 194.914062 271.152344 L 274.570312 271.152344 Z M 274.570312 191.351562 "/>
<path style=" stroke:none;fill-rule:nonzero;fill:url(#linear7);" d="M 190.574219 271.980469 C 190.574219 272.152344 190.574219 272.316406 190.574219 272.484375 C 190.574219 318.542969 227.707031 355.957031 273.691406 356.238281 L 273.691406 271.980469 Z M 190.574219 271.980469 "/>
<path style=" stroke:none;fill-rule:nonzero;fill:rgb(19.607843%,45.098039%,85.882353%);fill-opacity:1;" d="M 192.992188 273.054688 C 192.992188 273.21875 192.992188 273.375 192.992188 273.539062 C 192.988281 317.683594 228.582031 353.542969 272.652344 353.804688 L 272.652344 273.054688 Z M 192.992188 273.054688 "/>
</g>
</svg>
