<?xml version="1.0" standalone="no"?>
<!DOCTYPE svg PUBLIC "-//W3C//DTD SVG 20010904//EN"
 "http://www.w3.org/TR/2001/REC-SVG-20010904/DTD/svg10.dtd">
<svg version="1.0" xmlns="http://www.w3.org/2000/svg"
 width="612.000000pt" height="417.000000pt" viewBox="0 0 612.000000 417.000000"
 preserveAspectRatio="xMidYMid meet">

<g transform="translate(0.000000,417.000000) scale(0.100000,-0.100000)"
fill="#000000" stroke="none">
<path d="M2457 3708 c-9 -7 -20 -28 -23 -45 l-6 -33 636 0 636 0 0 28 c0 64
25 62 -631 62 -461 0 -599 -3 -612 -12z"/>
<path d="M1990 3578 c-14 -5 -29 -17 -35 -26 -6 -11 -12 -414 -15 -1145 l-5
-1127 42 0 43 0 2 1151 c2 633 1 1152 -2 1154 -3 1 -16 -2 -30 -7z"/>
<path d="M4100 2512 l0 -1078 40 -39 40 -39 0 1083 c0 723 -3 1089 -10 1102
-6 10 -24 26 -40 34 l-30 16 0 -1079z"/>
<path d="M2918 2853 c7 -3 16 -2 19 1 4 3 -2 6 -13 5 -11 0 -14 -3 -6 -6z"/>
<path d="M2758 2793 c7 -3 16 -2 19 1 4 3 -2 6 -13 5 -11 0 -14 -3 -6 -6z"/>
<path d="M2720 2770 c-8 -5 -10 -10 -5 -10 6 0 17 5 25 10 8 5 11 10 5 10 -5
0 -17 -5 -25 -10z"/>
<path d="M2645 2720 c-4 -6 -11 -7 -17 -4 -7 4 -8 2 -4 -5 6 -9 11 -9 22 0 14
11 18 19 10 19 -3 0 -8 -5 -11 -10z"/>
<path d="M3408 2702 c9 -10 19 -17 21 -16 6 5 -20 34 -30 34 -5 0 -1 -8 9 -18z"/>
<path d="M2605 2690 c3 -5 8 -10 11 -10 2 0 4 5 4 10 0 6 -5 10 -11 10 -5 0
-7 -4 -4 -10z"/>
<path d="M2569 2643 c-13 -16 -12 -17 4 -4 16 13 21 21 13 21 -2 0 -10 -8 -17
-17z"/>
<path d="M3212 2532 c-11 -8 -84 -98 -183 -229 -22 -29 -46 -53 -54 -53 -7 0
-33 23 -56 50 -55 65 -82 66 -144 9 -28 -25 -45 -50 -45 -64 0 -12 19 -44 42
-71 52 -60 126 -140 152 -165 24 -23 83 -25 114 -4 12 9 70 80 129 158 59 78
127 167 151 199 31 39 42 62 38 76 -6 19 -63 69 -103 90 -26 14 -24 14 -41 4z"/>
<path d="M1235 2341 c-7 -12 -13 -8 179 -106 82 -42 151 -74 153 -71 2 2 -44
31 -104 63 -59 33 -133 74 -165 92 -34 19 -59 28 -63 22z"/>
<path d="M2491 2004 c0 -11 3 -14 6 -6 3 7 2 16 -1 19 -3 4 -6 -2 -5 -13z"/>
<path d="M2564 1885 c8 -8 18 -15 22 -15 3 0 1 7 -6 15 -7 8 -17 15 -22 15 -5
0 -3 -7 6 -15z"/>
<path d="M3460 1880 c0 -5 5 -10 11 -10 5 0 7 5 4 10 -3 6 -8 10 -11 10 -2 0
-4 -4 -4 -10z"/>
<path d="M3429 1853 c-12 -16 -12 -17 2 -6 9 7 20 9 24 5 5 -4 5 -1 1 6 -9 16
-11 15 -27 -5z"/>
<path d="M2603 1845 c0 -8 4 -12 9 -9 5 3 6 10 3 15 -9 13 -12 11 -12 -6z"/>
<path d="M2647 1705 c-15 -31 -27 -58 -27 -60 0 -11 82 -55 147 -78 144 -52
295 -56 452 -11 47 14 126 47 140 60 4 4 -30 96 -40 108 -4 5 -26 1 -51 -9
-24 -10 -50 -19 -58 -19 -9 -1 -20 -5 -26 -9 -21 -13 -146 -27 -192 -22 -97
11 -172 28 -166 36 3 5 -2 6 -10 3 -8 -3 -24 0 -37 6 -17 10 -19 14 -8 22 10
7 7 7 -9 3 -14 -4 -32 0 -47 9 -13 9 -28 16 -33 16 -4 0 -20 -25 -35 -55z"/>
<path d="M5205 1730 c-4 -19 -13 -30 -23 -30 -14 0 -14 -2 -3 -9 11 -7 12 -15
3 -38 -20 -50 -33 -201 -37 -444 -4 -241 -12 -302 -45 -349 -9 -14 -20 -34
-24 -45 -3 -11 -24 -40 -46 -65 -73 -82 -155 -211 -165 -260 0 -3 -6 -21 -12
-40 -22 -70 -24 -90 -9 -90 10 0 17 14 21 38 11 67 76 211 105 232 4 3 9 10
11 16 4 12 37 56 80 108 36 43 72 104 87 147 8 24 14 122 17 280 4 272 21 451
45 484 4 6 8 18 9 28 3 42 5 47 20 47 14 0 14 2 1 10 -23 15 -28 12 -35 -20z"/>
<path d="M4985 1653 c-3 -21 -8 -51 -10 -67 -3 -16 2 -103 11 -195 8 -91 13
-186 9 -211 -9 -66 -34 -151 -54 -180 -18 -27 -30 -102 -13 -85 14 14 59 131
73 190 14 62 14 247 -1 378 -7 62 -8 116 -2 148 5 27 6 52 1 55 -4 2 -11 -12
-14 -33z"/>
<path d="M906 1644 c-5 -13 5 -30 39 -63 35 -33 43 -47 33 -54 -10 -6 -9 -8 3
-4 31 10 82 -68 114 -173 21 -68 58 -133 63 -108 2 9 -6 35 -17 58 -11 23 -28
67 -37 98 -19 68 -40 99 -116 177 -33 32 -63 65 -67 73 -7 12 -9 11 -15 -4z"/>
<path d="M2551 1486 c-58 -125 -58 -126 -22 -126 17 0 31 -5 31 -11 0 -17 42
-109 50 -109 4 0 13 14 20 31 7 17 24 37 37 46 30 20 29 31 -2 43 -27 10 -27
10 -29 53 -2 30 8 44 19 27 4 -6 11 -8 16 -4 14 8 43 -34 47 -66 1 -14 10 -29
19 -35 52 -32 65 -53 92 -144 32 -107 31 -136 -5 -127 -29 8 -29 7 -5 -52 11
-26 22 -56 25 -66 4 -10 8 -17 11 -15 5 6 165 496 165 507 0 5 -32 13 -71 16
-102 11 -208 40 -289 81 l-71 35 -38 -84z"/>
<path d="M3345 1523 c-40 -22 -176 -58 -248 -67 -49 -6 -57 -10 -52 -24 4 -9
13 -48 21 -87 8 -38 20 -95 27 -125 l13 -55 13 40 c18 54 29 65 60 65 54 0 65
-43 31 -119 -11 -24 -19 -45 -17 -47 4 -4 100 57 118 76 9 9 20 26 24 39 10
34 51 55 101 52 37 -2 44 0 43 16 0 27 -84 246 -95 249 -5 2 -22 -4 -39 -13z
m10 -103 c-3 -5 -10 -10 -16 -10 -5 0 -9 5 -9 10 0 6 7 10 16 10 8 0 12 -4 9
-10z m3 -52 c1 -8 -9 -20 -23 -26 -19 -9 -25 -17 -20 -31 11 -36 -48 -52 -69
-18 -8 13 -8 19 0 25 6 4 15 23 19 42 4 19 9 38 11 41 6 11 79 -18 82 -33z"/>
<path d="M4308 1490 c-42 -25 -20 -141 29 -148 27 -4 83 47 83 75 0 20 -44 73
-61 73 -4 0 -13 2 -21 5 -7 2 -21 0 -30 -5z"/>
<path d="M1679 1321 c-16 -16 -29 -38 -29 -48 0 -19 54 -83 70 -83 15 0 39 41
33 56 -3 8 0 14 6 14 15 0 14 67 -1 77 -28 17 -51 12 -79 -16z"/>
<path d="M969 1273 c5 -10 18 -27 30 -37 11 -10 18 -23 14 -29 -3 -5 -2 -7 4
-4 5 3 26 -23 46 -58 37 -64 98 -122 116 -111 12 8 3 36 -11 36 -14 0 -53 41
-93 100 -21 30 -50 69 -65 85 -31 35 -56 46 -41 18z"/>
<path d="M1872 1261 c-6 -4 -18 -37 -26 -74 l-14 -68 36 3 c33 3 37 7 49 47
20 71 21 71 160 71 115 0 125 -1 118 -17 -15 -39 -65 -213 -65 -228 0 -13 12
-15 72 -13 l73 3 27 125 c15 69 27 133 27 142 1 16 -17 17 -222 17 -123 0
-229 -4 -235 -8z"/>
<path d="M2331 1184 c0 -11 3 -14 6 -6 3 7 2 16 -1 19 -3 4 -6 -2 -5 -13z"/>
<path d="M2554 1175 c-4 -8 -3 -23 1 -32 6 -17 7 -17 21 1 8 11 14 26 14 33 0
18 -29 16 -36 -2z"/>
<path d="M2321 1144 c0 -11 3 -14 6 -6 3 7 2 16 -1 19 -3 4 -6 -2 -5 -13z"/>
<path d="M2392 1125 c-14 -31 -15 -55 -3 -55 7 0 22 70 16 78 -1 1 -7 -9 -13
-23z"/>
<path d="M5425 1140 c-3 -6 1 -7 9 -4 18 7 21 14 7 14 -6 0 -13 -4 -16 -10z"/>
<path d="M828 1118 c13 -14 25 -34 26 -44 2 -11 6 -17 9 -14 3 3 21 -9 39 -26
18 -18 62 -47 98 -66 126 -66 138 -81 174 -210 19 -68 43 -92 31 -32 -14 76
-48 165 -74 190 -14 15 -43 34 -63 44 -21 9 -35 20 -30 25 4 5 2 5 -5 1 -16
-9 -47 11 -148 93 -44 35 -70 53 -57 39z"/>
<path d="M3242 1080 l-64 -59 -4 -168 c-3 -92 -6 -185 -7 -206 l-2 -37 -183 0
-183 0 3 -22 c3 -23 5 -23 181 -26 l179 -2 -7 -75 c-4 -41 -3 -76 1 -76 85
-13 91 -9 100 64 4 34 7 68 5 75 -1 7 8 12 22 12 23 0 23 -1 14 -64 -13 -84
-7 -98 40 -94 l37 3 13 69 c7 38 10 73 7 77 -2 4 10 9 28 11 25 2 34 8 36 26
3 19 -1 22 -33 22 -35 0 -35 0 -19 25 12 18 16 52 18 127 1 57 6 111 10 121 7
15 2 17 -53 17 l-61 0 0 120 c0 66 -3 120 -7 120 -5 -1 -37 -27 -71 -60z m66
-402 c-2 -63 -4 -68 -25 -68 -24 0 -29 10 -13 26 5 5 13 38 16 73 9 82 25 59
22 -31z"/>
<path d="M5560 1117 c-11 -27 -32 -50 -90 -101 -63 -56 -75 -79 -88 -173 -6
-46 -21 -102 -33 -125 -21 -42 -93 -131 -154 -193 -39 -39 -99 -114 -114 -142
-10 -19 -9 -23 3 -23 9 0 23 14 32 32 9 17 56 72 104 122 104 108 153 182 169
256 37 164 44 182 75 209 43 36 116 112 127 132 6 12 4 19 -7 23 -9 4 -18 -2
-24 -17z"/>
<path d="M617 1090 c-3 -11 -2 -18 3 -15 4 2 15 -15 24 -40 10 -24 37 -67 62
-94 42 -46 66 -61 171 -106 42 -17 93 -78 93 -109 0 -45 79 -132 156 -172 81
-43 167 -126 175 -169 4 -19 28 -29 30 -12 2 18 -108 155 -134 167 -31 13
-122 75 -149 100 -9 8 -33 50 -52 92 -37 82 -70 114 -146 144 -87 33 -139 82
-182 172 -32 66 -42 74 -51 42z"/>
<path d="M4100 881 l0 -230 -26 -20 c-24 -19 -40 -21 -165 -21 l-139 0 0 -25
0 -25 164 0 c177 0 217 8 235 46 7 16 11 99 11 233 l0 207 -33 32 c-18 18 -36
32 -40 32 -4 0 -7 -103 -7 -229z"/>
<path d="M2311 1084 c0 -11 3 -14 6 -6 3 7 2 16 -1 19 -3 4 -6 -2 -5 -13z"/>
<path d="M5280 1079 c0 -5 4 -9 8 -9 7 0 -7 -114 -22 -180 -11 -46 -28 -80
-39 -73 -6 3 -7 1 -3 -5 9 -16 -16 -61 -83 -150 -58 -78 -102 -150 -146 -238
-29 -58 -30 -64 -12 -64 6 0 23 26 36 56 14 31 67 118 119 193 120 174 137
208 157 317 28 159 28 151 5 157 -11 3 -20 1 -20 -4z"/>
<path d="M938 1073 c7 -3 16 -2 19 1 4 3 -2 6 -13 5 -11 0 -14 -3 -6 -6z"/>
<path d="M5615 1069 c-4 -6 -5 -12 -2 -15 2 -3 7 2 10 11 7 17 1 20 -8 4z"/>
<path d="M2301 1034 c0 -11 3 -14 6 -6 3 7 2 16 -1 19 -3 4 -6 -2 -5 -13z"/>
<path d="M2291 984 c0 -11 3 -14 6 -6 3 7 2 16 -1 19 -3 4 -6 -2 -5 -13z"/>
<path d="M4230 854 c0 -33 5 -96 12 -142 l11 -82 40 -11 c40 -11 69 -8 120 13
26 10 28 14 20 42 -4 17 -7 77 -5 134 l3 104 -23 -9 c-28 -10 -90 -9 -140 2
l-38 8 0 -59z"/>
<path d="M695 879 c-4 -6 -5 -12 -2 -15 2 -3 7 2 10 11 7 17 1 20 -8 4z"/>
<path d="M1940 824 c0 -33 -2 -36 -22 -30 -13 3 -49 9 -81 13 -72 7 -97 -10
-97 -69 l0 -38 76 0 76 0 -7 -27 c-4 -16 -7 -47 -6 -70 1 -24 -3 -61 -8 -83
-5 -22 -5 -38 -1 -35 5 3 10 -12 12 -32 3 -36 5 -38 41 -41 32 -3 38 0 47 23
6 14 10 44 10 65 0 70 -23 65 340 62 l330 -3 0 26 0 25 -289 0 c-356 0 -332
-10 -339 143 l-5 107 -38 0 c-38 0 -39 -1 -39 -36z"/>
<path d="M5527 697 c3 -6 0 -15 -8 -21 -8 -6 -24 -25 -36 -42 -12 -16 -50 -50
-84 -75 -94 -66 -138 -108 -160 -150 -23 -45 -23 -49 -5 -49 8 0 16 11 20 23
6 24 76 94 132 132 16 11 56 47 89 79 33 33 62 59 65 59 3 -1 6 11 7 26 1 18
-3 28 -12 28 -8 0 -11 -5 -8 -10z"/>
<path d="M659 663 c-11 -13 -11 -15 -1 -9 9 5 19 1 27 -11 15 -22 73 -41 156
-53 63 -9 132 -37 123 -51 -3 -5 1 -6 9 -3 8 3 31 -16 58 -48 91 -108 112
-128 133 -128 19 1 19 3 -9 28 -17 15 -54 55 -84 89 -78 93 -123 119 -233 138
-86 15 -148 39 -148 57 0 14 -17 9 -31 -9z"/>
<path d="M1740 646 c-6 -6 -10 -61 -10 -124 0 -114 0 -114 23 -108 12 3 29 6
38 6 12 0 21 25 37 103 12 57 22 110 22 118 0 16 -95 20 -110 5z"/>
<path d="M1494 550 c0 -58 1 -81 3 -52 2 28 2 76 0 105 -2 28 -3 5 -3 -53z"/>
<path d="M5642 611 c-20 -9 -41 -33 -59 -67 -25 -47 -34 -56 -91 -80 -73 -31
-142 -104 -98 -104 8 0 23 13 32 29 10 17 31 33 53 40 62 19 98 48 127 102 24
45 35 55 69 65 27 8 44 8 53 1 8 -7 12 -5 12 7 0 9 -3 17 -7 17 -34 6 -65 3
-91 -10z"/>
<path d="M493 594 c-18 -19 -17 -21 23 -29 20 -3 82 -28 139 -55 80 -39 125
-53 201 -65 82 -14 106 -22 146 -51 27 -19 53 -34 58 -34 19 0 10 18 -24 44
-48 36 -129 66 -180 66 -46 0 -121 22 -173 51 -78 44 -120 62 -141 64 -13 0
-26 6 -30 12 -5 8 -11 7 -19 -3z"/>
<path d="M2710 585 c0 -18 5 -25 20 -25 15 0 20 7 20 25 0 18 -5 25 -20 25
-15 0 -20 -7 -20 -25z"/>
<path d="M2331 504 c0 -11 3 -14 6 -6 3 7 2 16 -1 19 -3 4 -6 -2 -5 -13z"/>
<path d="M5735 479 c-4 -6 -5 -12 -2 -15 2 -3 7 2 10 11 7 17 1 20 -8 4z"/>
<path d="M4732 428 c-7 -7 -12 -25 -12 -41 0 -42 23 -28 28 16 4 40 2 43 -16
25z"/>
<path d="M530 406 c0 -2 7 -7 16 -10 8 -3 12 -2 9 4 -6 10 -25 14 -25 6z"/>
<path d="M2644 369 c-3 -5 33 -9 80 -9 47 0 86 4 86 9 0 12 -159 11 -166 0z"/>
<path d="M3158 373 c-34 -9 -17 -23 28 -23 32 0 44 4 42 13 -5 13 -41 18 -70
10z"/>
<path d="M3310 365 c0 -11 12 -15 45 -15 48 0 60 14 23 24 -40 10 -68 7 -68
-9z"/>
<path d="M4610 370 c0 -5 7 -10 15 -10 8 0 15 5 15 10 0 6 -7 10 -15 10 -8 0
-15 -4 -15 -10z"/>
<path d="M1740 359 c0 -5 21 -9 47 -9 25 0 44 2 42 4 -10 8 -89 13 -89 5z"/>
<path d="M1910 359 c0 -5 21 -9 47 -9 25 0 44 2 42 4 -10 8 -89 13 -89 5z"/>
<path d="M4273 363 c9 -2 25 -2 35 0 9 3 1 5 -18 5 -19 0 -27 -2 -17 -5z"/>
<path d="M4403 363 c9 -2 23 -2 30 0 6 3 -1 5 -18 5 -16 0 -22 -2 -12 -5z"/>
</g>
</svg>
