<?xml version="1.0" standalone="no"?>
<!DOCTYPE svg PUBLIC "-//W3C//DTD SVG 20010904//EN"
 "http://www.w3.org/TR/2001/REC-SVG-20010904/DTD/svg10.dtd">
<svg version="1.0" xmlns="http://www.w3.org/2000/svg"
 width="360.000000pt" height="360.000000pt" viewBox="0 0 360.000000 360.000000"
 preserveAspectRatio="xMidYMid meet">

<g transform="translate(0.000000,360.000000) scale(0.100000,-0.100000)"
fill="#000000" stroke="none">
<path d="M1522 3064 c-12 -8 -22 -21 -22 -28 0 -7 -9 -25 -21 -40 -13 -17 -15
-24 -6 -20 8 3 22 23 32 44 11 24 28 43 44 49 14 5 19 10 11 10 -9 1 -26 -6
-38 -15z"/>
<path d="M2518 3063 c18 -2 45 -2 60 0 15 2 0 4 -33 4 -33 0 -45 -2 -27 -4z"/>
<path d="M2630 3049 c14 -6 36 -20 50 -32 14 -12 11 -7 -7 11 -18 17 -41 32
-50 31 -13 0 -11 -3 7 -10z"/>
<path d="M1575 3010 c-3 -5 -1 -10 4 -10 6 0 11 5 11 10 0 6 -2 10 -4 10 -3 0
-8 -4 -11 -10z"/>
<path d="M1390 2965 c-6 -8 -10 -20 -7 -27 4 -8 6 -7 6 4 1 9 9 22 19 27 9 6
12 11 6 11 -6 0 -17 -7 -24 -15z"/>
<path d="M2721 2944 c0 -11 3 -14 6 -6 3 7 2 16 -1 19 -3 4 -6 -2 -5 -13z"/>
<path d="M2733 2865 c0 -27 2 -38 4 -22 2 15 2 37 0 50 -2 12 -4 0 -4 -28z"/>
<path d="M1361 2874 c0 -11 3 -14 6 -6 3 7 2 16 -1 19 -3 4 -6 -2 -5 -13z"/>
<path d="M616 2858 c-14 -20 -16 -117 -16 -853 l0 -830 -75 -113 c-78 -117
-84 -136 -44 -160 30 -19 50 -8 84 45 l30 48 3 -99 c3 -95 11 -126 35 -126 7
0 7 4 -1 12 -8 8 -12 51 -12 130 l0 117 196 298 c108 164 199 301 203 305 3 4
41 -4 84 -17 90 -29 210 -33 293 -11 239 63 391 315 340 562 -23 113 -67 197
-145 275 -77 76 -158 120 -268 145 -199 44 -391 -27 -502 -186 -56 -80 -83
-157 -89 -255 -8 -153 43 -290 150 -397 l60 -60 -161 -241 -161 -242 0 822 c0
734 2 823 16 837 8 9 11 16 5 16 -5 0 -17 -10 -25 -22z m744 -365 c198 -70
319 -286 276 -493 -35 -165 -154 -286 -318 -321 -168 -36 -357 69 -439 246
-79 168 -33 381 108 499 98 83 253 111 373 69z"/>
<path d="M1350 2842 c0 -7 -15 -21 -32 -32 -18 -11 -28 -20 -21 -20 18 0 69
47 61 56 -5 4 -8 2 -8 -4z"/>
<path d="M2893 2793 c9 -2 23 -2 30 0 6 3 -1 5 -18 5 -16 0 -22 -2 -12 -5z"/>
<path d="M1121 2749 c-13 -22 -20 -43 -17 -46 3 -4 6 -2 6 4 0 6 11 27 25 47
13 20 21 36 17 36 -5 0 -19 -18 -31 -41z"/>
<path d="M2722 2770 c0 -14 2 -19 5 -12 2 6 2 18 0 25 -3 6 -5 1 -5 -13z"/>
<path d="M2820 2780 c-11 -8 -7 -9 15 -4 37 8 45 14 19 14 -10 0 -26 -5 -34
-10z"/>
<path d="M2968 2775 c17 -8 44 -27 58 -42 25 -27 69 -103 60 -103 -3 0 2 -16
10 -35 8 -20 17 -70 21 -112 5 -63 4 -75 -8 -68 -11 6 -11 5 -3 -4 13 -14 6
-64 -7 -55 -5 3 -6 -2 -3 -10 3 -8 -4 -32 -15 -54 -19 -37 -63 -72 -146 -115
-16 -9 -26 -16 -22 -17 15 0 104 49 136 76 60 50 76 96 76 214 0 117 -18 187
-64 255 -29 43 -84 85 -110 85 -9 -1 -1 -7 17 -15z"/>
<path d="M2754 2744 c-18 -14 -18 -15 4 -4 12 6 22 13 22 15 0 8 -5 6 -26 -11z"/>
<path d="M2514 2368 l-29 -33 33 29 c30 28 37 36 29 36 -2 0 -16 -15 -33 -32z"/>
<path d="M2459 2323 c-13 -16 -12 -17 4 -4 9 7 17 15 17 17 0 8 -8 3 -21 -13z"/>
<path d="M2864 2144 c-18 -14 -18 -14 6 -3 31 14 36 19 24 19 -6 0 -19 -7 -30
-16z"/>
<path d="M2819 2113 c-13 -16 -12 -17 4 -4 9 7 17 15 17 17 0 8 -8 3 -21 -13z"/>
<path d="M2763 2010 c0 -25 2 -35 4 -22 2 12 2 32 0 45 -2 12 -4 2 -4 -23z"/>
<path d="M2771 1955 c0 -5 6 -21 14 -35 8 -14 14 -20 14 -15 0 6 -6 21 -14 35
-8 14 -14 21 -14 15z"/>
<path d="M2801 1885 c1 -19 18 -51 18 -35 0 8 -4 22 -9 30 -5 8 -9 11 -9 5z"/>
<path d="M2820 1809 c0 -11 -5 -30 -11 -42 -10 -21 -10 -21 5 -3 15 18 22 66
11 66 -3 0 -5 -9 -5 -21z"/>
<path d="M1730 1747 c0 -8 -11 -22 -25 -31 -31 -21 -31 -28 0 -62 l25 -26 11
28 c16 40 17 96 2 101 -7 3 -13 -2 -13 -10z"/>
<path d="M2705 1743 c-40 -10 -55 -34 -55 -85 0 -26 4 -48 9 -48 19 0 42 13
33 19 -19 12 -24 51 -8 57 22 8 46 -13 43 -38 -2 -17 9 -24 53 -39 61 -20 98
-56 133 -129 20 -40 26 -45 67 -52 64 -11 117 6 140 45 30 49 23 125 -14 149
-6 4 -36 8 -68 8 -50 0 -59 3 -82 31 -14 17 -26 34 -26 39 0 12 -49 28 -105
34 -27 3 -61 8 -75 10 -14 2 -34 2 -45 -1z"/>
<path d="M2358 1694 c-7 -6 19 -74 34 -89 5 -5 3 7 -6 29 -9 21 -16 40 -16 43
0 2 21 -13 48 -33 l47 -38 -45 47 c-44 47 -52 52 -62 41z"/>
<path d="M1760 1655 c0 -8 5 -15 10 -15 6 0 10 7 10 15 0 8 -4 15 -10 15 -5 0
-10 -7 -10 -15z"/>
<path d="M1569 1583 l-24 -28 30 25 c17 14 32 26 34 28 2 1 0 2 -6 2 -5 0 -20
-12 -34 -27z"/>
<path d="M2635 1591 c-6 -10 83 -36 92 -27 3 3 -2 6 -13 6 -10 0 -31 7 -46 14
-15 8 -30 11 -33 7z"/>
<path d="M2750 1580 c-9 -6 -10 -10 -3 -10 6 0 15 5 18 10 8 12 4 12 -15 0z"/>
<path d="M1919 1553 c-12 -16 -12 -17 1 -6 13 10 31 8 89 -7 40 -10 75 -21 77
-23 3 -3 -2 -22 -11 -42 -8 -21 -14 -40 -11 -42 2 -2 11 15 21 39 16 40 16 43
-1 55 -9 7 -42 17 -73 24 -30 6 -61 13 -67 16 -6 2 -17 -4 -25 -14z"/>
<path d="M2430 1546 c0 -2 8 -10 18 -17 15 -13 16 -12 3 4 -13 16 -21 21 -21
13z"/>
<path d="M1522 1475 c0 -16 2 -22 5 -12 2 9 2 23 0 30 -3 6 -5 -1 -5 -18z"/>
<path d="M2696 1480 c-32 -10 -63 -23 -69 -29 -14 -14 20 -64 38 -57 8 3 18
-1 22 -8 12 -19 67 -27 103 -15 16 6 30 14 30 19 0 20 -44 110 -54 109 -6 0
-37 -9 -70 -19z"/>
<path d="M2921 1384 c0 -11 3 -14 6 -6 3 7 2 16 -1 19 -3 4 -6 -2 -5 -13z"/>
<path d="M2672 1319 c22 -53 24 -54 83 -38 69 18 72 22 25 30 -25 5 -56 17
-70 27 -53 39 -60 36 -38 -19z"/>
<path d="M2899 1343 c-13 -16 -12 -17 4 -4 9 7 17 15 17 17 0 8 -8 3 -21 -13z"/>
<path d="M1543 1275 c0 -22 2 -30 4 -17 2 12 2 30 0 40 -3 9 -5 -1 -4 -23z"/>
<path d="M2830 1296 c0 -19 42 -75 68 -91 l27 -16 -26 23 c-15 13 -36 39 -48
58 -11 19 -21 31 -21 26z"/>
<path d="M2933 1179 c3 -9 0 -23 -6 -30 -7 -8 -3 -6 8 3 16 15 17 20 6 30 -11
11 -13 10 -8 -3z"/>
<path d="M2766 1153 c-4 -4 -46 -10 -94 -13 l-87 -5 -8 -85 c-4 -47 -18 -145
-32 -219 -14 -74 -23 -136 -20 -139 11 -11 37 11 64 53 19 30 31 65 35 107 6
52 31 134 72 233 5 12 11 -64 15 -188 6 -200 13 -244 36 -215 18 23 43 111 43
152 0 23 9 79 20 126 12 46 23 111 27 142 l6 58 -35 0 c-19 0 -38 -3 -42 -7z"/>
<path d="M1570 999 c0 -24 5 -62 11 -84 9 -30 8 -57 -2 -109 -11 -61 -11 -80
5 -154 19 -96 30 -122 51 -122 18 0 21 12 40 165 9 72 18 146 21 165 l6 35 40
-80 c33 -66 41 -94 47 -160 5 -62 13 -91 34 -128 38 -64 53 -61 61 11 14 131
-31 499 -61 488 -55 -21 -169 -16 -239 11 -11 4 -14 -5 -14 -38z"/>
<path d="M2638 763 c7 -3 16 -2 19 1 4 3 -2 6 -13 5 -11 0 -14 -3 -6 -6z"/>
<path d="M2433 733 c9 -2 23 -2 30 0 6 3 -1 5 -18 5 -16 0 -22 -2 -12 -5z"/>
<path d="M2363 723 c9 -2 23 -2 30 0 6 3 -1 5 -18 5 -16 0 -22 -2 -12 -5z"/>
<path d="M2293 713 c9 -2 25 -2 35 0 9 3 1 5 -18 5 -19 0 -27 -2 -17 -5z"/>
<path d="M2238 703 c6 -2 18 -2 25 0 6 3 1 5 -13 5 -14 0 -19 -2 -12 -5z"/>
<path d="M2485 670 c-4 -6 7 -10 25 -10 18 0 29 4 25 10 -3 6 -15 10 -25 10
-10 0 -22 -4 -25 -10z"/>
<path d="M2690 650 c0 -5 11 -10 25 -10 14 0 25 5 25 10 0 6 -11 10 -25 10
-14 0 -25 -4 -25 -10z"/>
<path d="M1620 500 c0 -5 6 -10 14 -10 8 0 18 5 21 10 3 6 -3 10 -14 10 -12 0
-21 -4 -21 -10z"/>
<path d="M1876 460 c-15 -5 -16 -9 -7 -14 7 -5 18 -3 24 3 14 14 6 20 -17 11z"/>
</g>
</svg>
